<?xml version="1.0" encoding="UTF-8"?>
<svg id="_レイヤー_1" xmlns="http://www.w3.org/2000/svg" version="1.1" viewBox="0 0 408.5 420.3">
  <!-- Generator: Adobe Illustrator 30.5.1, SVG Export Plug-In . SVG Version: 2.1.4 Build 3)  -->
  <defs>
    <style>
      .st0 {
        fill: #3e3e3e;
      }
    </style>
  </defs>
  <path class="st0" d="M244.5,29.7h0c4,20-9,39.5-29,43.5h0c-20,4-39.5-9-43.5-29h0c-4-20,9-39.5,29-43.5h0c20-4,39.5,9,43.5,29h0"/>
  <path class="st0" d="M304.6,70h0c-4.9,3-11.3,1.5-14.3-3.3h0c-3-4.9-1.6-11.3,3.3-14.3h0c4.9-3,11.3-1.5,14.3,3.3h0c3,4.9,1.6,11.3-3.3,14.3h0"/>
  <path class="st0" d="M367.1,139.5h0c-7.6,1.5-15-3.5-16.4-11.2h0c-1.5-7.6,3.5-15,11.2-16.5h0c7.6-1.5,15,3.5,16.4,11.2h0c1.5,7.6-3.5,15-11.2,16.5h0"/>
  <path class="st0" d="M405,224.5h0c-5.7,7.4-16.3,8.7-23.6,3h0c-7.4-5.7-8.7-16.3-3-23.6h0c5.7-7.4,16.3-8.7,23.6-3h0c7.4,5.7,8.7,16.3,3,23.6h0"/>
  <path class="st0" d="M369.1,323.2h0c-10.1,1-19-6.4-20-16.5h0c-1-10.1,6.4-19.1,16.5-20h0c10.1-1,19,6.4,20,16.5h0c1,10.1-6.4,19.1-16.5,20h0"/>
  <path class="st0" d="M305,391.7h0c-11.3,1.7-21.9-6-23.7-17.4h0c-1.7-11.3,6-21.9,17.3-23.7h0c11.3-1.7,21.9,6,23.7,17.4h0c1.7,11.3-6,21.9-17.3,23.7h0"/>
  <path class="st0" d="M211.3,420.3h0c-12.5-.4-22.3-10.9-21.9-23.4h0c.4-12.5,10.8-22.3,23.3-21.9h0c12.5.4,22.3,10.9,21.9,23.4h0c-.4,12.5-10.8,22.3-23.3,21.9h0"/>
  <path class="st0" d="M124,397.8h0c-13.7,1.3-25.8-8.7-27.1-22.4h0c-1.3-13.7,8.7-25.8,22.4-27.1h0c13.7-1.3,25.8,8.7,27.1,22.4h0c1.3,13.7-8.7,25.8-22.4,27.1h0"/>
  <path class="st0" d="M60.2,335.5h0c-15.3,2.8-29.9-7.4-32.7-22.7h0c-2.8-15.3,7.3-30,22.6-32.7h0c15.3-2.8,29.9,7.4,32.7,22.7h0c2.8,15.3-7.3,30-22.6,32.7h0"/>
  <path class="st0" d="M16.8,245.3h0c-14.8-7.2-20.9-25-13.8-39.8h0c7.2-14.8,25-21,39.8-13.8h0c14.8,7.2,20.9,25,13.8,39.8h0c-7.2,14.8-25,21-39.8,13.8h0"/>
  <path class="st0" d="M60.4,160.4h0c-17.4,3.6-34.5-7.7-38-25.1h0c-3.6-17.4,7.6-34.5,25-38.1h0c17.4-3.6,34.5,7.7,38,25.1h0c3.6,17.4-7.6,34.5-25,38.1h0"/>
  <path class="st0" d="M116.6,97.2h0c-19.2-.9-34.1-17.3-33.2-36.5h0c.9-19.2,17.2-34.1,36.4-33.2h0c19.2.9,34.1,17.3,33.2,36.5h0c-.9,19.2-17.2,34.1-36.4,33.2h0"/>
</svg>