<?xml version="1.0" encoding="UTF-8"?>
<svg id="_レイヤー_1" data-name="レイヤー_1" xmlns="http://www.w3.org/2000/svg" version="1.1" viewBox="0 0 1940.1 280.5">
  <!-- Generator: Adobe Illustrator 30.5.1, SVG Export Plug-In . SVG Version: 2.1.4 Build 3)  -->
  <defs>
    <style>
      .st0 {
        fill: #3e3e3e;
      }
    </style>
  </defs>
  <path class="st0" d="M3.4,280.5c-1.7,0-3.4-.8-3.4-1.3l.3-14h442.3s18.7-14.7,18.7-14.7c38-22.7,85.3-22.5,123.2.4l18.1,14.2h1235.3s100.3,0,100.3,0l1.9,1.8-.4,13.6H3.4Z"/>
  <path class="st0" d="M1386.6,170.5c-5.1-.9-7-6-6.3-9.5s5.1-5.9,9.7-5.7c18.7.9,36.7-1.9,52.7-11.3,17.7-10.4,29.3-28.1,29.4-48.7v-18.1c.3-36.6-33.3-62.5-69.1-62.1l-38.2.3v215.3c0,4.7-3.4,7.9-7.4,8.1s-8.1-3-8.1-7.9V12.7c0-6.8,5.3-12.4,11.8-12.4l44.9-.2c15.4,0,30,4.4,43.2,11.9,22.8,12.8,37.2,35.5,38.3,61.7v23.3c0,36.1-30.5,64.4-66.2,72.1l42.8,55c3,3.9,3.2,8.3-1.1,11.6s-7.6,1-10.7-2.9l-48.2-61.7c-6.1.2-11.9.5-17.7-.5Z"/>
  <path class="st0" d="M42.3,170.7c-4.8,0-7.2-5.5-6.9-8.7,1.4-13.3,25,.5,57.3-15.1,18-8.7,31.4-24.6,34-44.7s1.1-19.8.4-29.9c-2.4-34.6-35.4-57.5-69-57.2l-38.2.4v214.6c0,4.8-2.4,8.1-6.8,8.7s-8.6-2.6-8.6-7.7V12.5C4.5,5.7,10.1.3,16.1.3L61.1,0c16.4,0,31.9,4.9,45.8,13.4,21.1,12.8,34.3,34.2,35.9,59v25.9c-2.8,38.5-29.6,61.8-66.2,70.8l42.7,54.9c3,3.8,3.6,7.6-.2,11s-7.6,2.8-10.7-1.2l-49-62.7-17.2-.3Z"/>
  <path class="st0" d="M757.9,145.6c18.6-10,30.7-27.5,31.9-48.3v-24c0-16.2-8.9-30.2-20.9-40.9-11.4-9.3-24.9-15.5-39.9-16.7l-43.6-.2v214.6c0,5.3-3.1,8.7-7.7,8.7s-7.8-3.4-7.8-8.7V12.5c0-6.4,5.3-12,11.3-12.1L722.1,0c18.7-.2,36.5,5.8,51.7,16.5s30,33.7,31.2,56.7v23.2c.3,47.3-49,79.4-98,74.2-4.3-.5-6.6-5.9-6.3-8.7.5-4.8,4.5-6.7,9.3-6.5,16.8.7,32.8-1.7,47.9-9.8Z"/>
  <path class="st0" d="M1699,37.1l-64.1,111.8c-2.3,4-6.3,5.5-9.9,3.8s-6.3-6.6-4-10.6L1699.5,4c1.4-2.5,5.9-3.5,7.9-3.5s6.6,2.2,6.6,5.3v226.1c0,3.3-5.3,4.9-7.5,4.8s-5.9-1.5-7.4-4.8l-.2-194.8Z"/>
  <path class="st0" d="M203.2,151.7v35.6c-.2,12.7,6.9,23.7,17.7,30.3,14.5,8.9,32.6,9.6,48.1,2.5,8-3.6,13.8-13.8,20.5-6.9s3.4,7.6.1,10.9c-20.5,20.3-59.3,20.9-82.9,1.6-11.3-9.2-18.6-21.8-18.6-36.4v-38.8c.1-21.4,14.5-38.7,34.5-45.6,16.6-5.8,34.2-4.6,49.8,4,14.3,7.9,23.6,22.2,25.4,38.5l.2,18.9c0,4.6-3.8,8.2-8.5,8.8l-61.6,8c-4.4.6-7.7-2-8.6-5.7s1.2-8.4,5.9-9l58-7.2c2.4-20.1-9-37.6-28.1-43-13.8-3.9-28.4-1.6-39.3,7.8s-12.7,15.1-12.7,25.7Z"/>
  <path class="st0" d="M928.4,221.2c-22.4,20.8-57,21.1-80,2s-17.9-22.4-19.1-36.9v-34c1.4-20.4,13.7-37.5,32.2-45.7s46.7-6.9,64.8,8.4c11.2,9.5,17.8,22.6,18.9,37.3l.2,31c0,14.2-6.1,27.7-17.1,37.9ZM906.3,217.8c14.5-6.6,24.3-20.3,24.2-35.8v-26.3c0-10.4-4.6-19.6-12.1-27-16.1-15.9-42.2-17.5-60-3.2s-14.7,17.9-14.6,29.5v28.3c0,14.6,9,27.5,22,34,12.7,6.3,27,6.5,40.4.4Z"/>
  <path class="st0" d="M1558.5,37.1l-.2,194.1c0,3.6-4.5,5.2-6.8,5.4s-8.1-1.2-8.1-5.2V7.2c0-3.4,4.1-5.8,6.2-6.1s6.9.8,8.4,3.4l59.6,105.1c2.4,4.2,1.1,8.8-2.1,10.8s-8.5,1.1-11.1-2.7l-46-80.6Z"/>
  <path class="st0" d="M1053,119.8c-15.3-5.7-32.3-3.7-44.5,6.9-7.8,6.9-12.1,17-12.2,27.6l-.7,73.9c0,4.8-2.7,8-7,8.3s-7.9-2.5-7.9-7.3l.8-76.7c.2-18.3,10-34.5,25.5-43.4,17-9.7,36.2-10.5,54.1-2.9s31.3,26,31.5,47l.8,77c0,4.3-4.7,6.5-7.7,6.3-4.5-.3-7-3.5-7.1-8.3l-.2-69.9c0-17.4-8.3-32.2-25.4-38.5Z"/>
  <path class="st0" d="M413.7,224.8c-13.1,14.3-39.9,15.6-57.7,5.8-8-4.4-13.2-11.6-14.8-20.5s1.3-7.5,4.7-8.7,8.3,1.1,9,5c1.1,6.1,4.5,10.5,10.1,13,9.9,4.5,21,5.1,31,.8s12.6-11,12.4-20c-.2-8.5-4.9-15.3-13.2-18.3l-20.9-4.9c-10.1-2.4-19.9-5.4-26.8-13.3s-9.9-22.7-7-35,10-20.5,21.7-24.7,31.7-4.2,45.4,3.5,15.8,14.7,15.4,25.5-4.4,5.8-7.3,5.5c-9.7-.8-4.6-12.3-14-18.1-10.1-6.2-22.9-7.7-34.1-3.8s-14.6,13.3-14.4,23.5,4.8,18.3,14.4,20.5l21.1,4.9c9,2.1,18.8,4.6,25.3,11.7,12,13.1,11.6,34.3-.4,47.3Z"/>
  <path class="st0" d="M1218.2,226.4c1.8,5.4.6,8.7-3.3,11.3s-9.3,2.1-10.9-2.6l-75.6-226.1c-1.3-3.8,2.8-7,5.1-8.1s8.9-1.2,10.4,3l74.3,222.5Z"/>
  <path class="st0" d="M1236.7,193.1c-1.6,4.4-6.7,4.5-9.6,3.8s-7.4-4.5-5.9-8.6L1288.2,5.7c1.7-4.6,5.9-6.4,10.2-5.2s7.2,4.9,5.5,9.7l-67.1,182.9Z"/>
  <path class="st0" d="M585.8,160.3c0,34.9-28.3,63.2-63.2,63.2s-63.2-28.3-63.2-63.2,28.3-63.2,63.2-63.2,63.2,28.3,63.2,63.2ZM571.6,160.4c0-27.1-22-49.1-49.1-49.1s-49.1,22-49.1,49.1,22,49.1,49.1,49.1,49.1-22,49.1-49.1Z"/>
  <g>
    <path class="st0" d="M1915.5,217.2l-28.8,16.5-26.3-45.4-26.6,33.7c-1.6,2-4.6,3.4-6.8,2.8s-4.9-2.9-5.1-5.7l-10.1-140.8c0-.9.8-2.9,1.4-3.5s3.6-1,4.5-.3l116.9,78.9c2.1,1.4,3.3,4.1,3.2,6.1s-2.7,5.3-4.9,5.7l-43.7,6.5,26.2,45.5Z"/>
    <path class="st0" d="M1845.9,47.6c-.7,3.7-4.4,5.6-7.3,4.9s-5.1-3.8-4.5-7.1l4.9-26.2c.5-2.9,3.9-5.1,6.4-5s5.9,3.4,5.4,5.9l-4.9,27.4Z"/>
    <path class="st0" d="M1804.2,51.7c2.1,3,1.2,6.8-1.5,8.6s-6.4,1-8.5-2.1l-15.1-22c-1.6-2.4-.4-6.4,1.6-7.8,2.9-2,6.6-1.2,8.6,1.7l14.9,21.7Z"/>
    <path class="st0" d="M1776.8,96.1l-27.5-5c-2.7-.5-5.1-4-4.9-6.2s3.3-6.3,6.5-5.7l27.2,5c2.8.5,4.8,3.9,4.7,6.4s-3.2,6-6,5.5Z"/>
    <path class="st0" d="M1877.7,74.5c-2.7,1.9-7.1-.2-8.1-2.2-1.5-3.1-.5-6.3,2.3-8.2l21.4-14.7c2.6-1.8,6.1-1.6,8.3.9s1.8,6.5-1,8.4l-22.9,15.8Z"/>
    <path class="st0" d="M1767.5,150.3c-3.2,2.2-6.3,1.8-8.6-.5s-2.3-6.5.3-8.3l23.3-16.1c2.4-1.6,6.6-.3,7.9,1.9s1,6.4-1.9,8.4l-21,14.6Z"/>
  </g>
</svg>